<?xml version="1.0" encoding="UTF-8" standalone="no"?>
<!-- Uploaded to: SVG Repo, www.svgrepo.com, Generator: SVG Repo Mixer Tools -->

<svg
   height="800px"
   width="800px"
   version="1.1"
   id="Layer_1"
   viewBox="0 0 512 512"
   xml:space="preserve"
   sodipodi:docname="logo.svg"
   inkscape:version="1.2.2 (03908c27, 2023-01-22)"
   xmlns:inkscape="http://www.inkscape.org/namespaces/inkscape"
   xmlns:sodipodi="http://sodipodi.sourceforge.net/DTD/sodipodi-0.dtd"
   xmlns="http://www.w3.org/2000/svg"
   xmlns:svg="http://www.w3.org/2000/svg"><defs
   id="defs28" /><sodipodi:namedview
   id="namedview26"
   pagecolor="#ffffff"
   bordercolor="#666666"
   borderopacity="1.0"
   inkscape:showpageshadow="2"
   inkscape:pageopacity="0.0"
   inkscape:pagecheckerboard="0"
   inkscape:deskcolor="#d1d1d1"
   showgrid="false"
   inkscape:zoom="0.4043153"
   inkscape:cx="270.82824"
   inkscape:cy="317.82127"
   inkscape:window-width="2560"
   inkscape:window-height="1387"
   inkscape:window-x="0"
   inkscape:window-y="25"
   inkscape:window-maximized="0"
   inkscape:current-layer="Layer_1" />
<path
   style="fill:#F7B239;"
   d="M92.483,73.768c-1.617-3.948-2.506-8.273-2.506-12.8c0-18.621,15.091-33.725,33.725-33.725  c9.337,0,17.785,3.8,23.902,9.93c6.009-17.489,22.595-30.073,42.132-30.073c13.245,0,25.142,5.78,33.293,14.969  C227.786,9.189,240.168,0,254.693,0c15.36,0,28.308,10.28,32.391,24.32c8.152-10.469,20.871-17.219,35.166-17.219  c19.537,0,36.136,12.584,42.146,30.073c6.104-6.131,14.552-9.93,23.902-9.93c18.621,0,33.725,15.104,33.725,33.725  c0,4.527-0.903,8.852-2.52,12.8c22.757,1.994,40.61,21.086,40.61,44.369c0,11.587-4.433,22.151-11.695,30.073l-67.112,79.859  l-105.095,29.642l-125.305-33.684l-60.632-20.211l-26.705-55.606c-7.249-7.923-11.682-18.486-11.682-30.073  C51.887,94.855,69.726,75.763,92.483,73.768z"
   id="path9" />
<polygon
   style="fill:#F95428;"
   points="448.418,148.211 381.561,148.211 130.425,148.211 63.569,148.211 63.138,148.211 108.14,512   159.717,512 352.256,512 403.847,512 448.849,148.211 "
   id="polygon11" />
<g
   id="g17">
	<path
   style="fill:#F2F2F2;"
   d="M381.561,148.211L352.256,512H292.15l3.665-120.994c19.847-12.989,21.41-106.024,3.597-119.283   l0.013-0.013l3.732-123.5H381.561z"
   id="path13" />
	<path
   style="fill:#F2F2F2;"
   d="M216.185,391.02L219.837,512h-60.12l-29.292-363.789h78.417l3.732,123.486l0.013,0.013   C194.776,284.968,196.339,378.031,216.185,391.02z"
   id="path15" />
</g>

<polygon
   style="fill:#f95428;fill-opacity:1"
   points="130.425,148.211 159.717,512 108.14,512 63.138,148.211 63.569,148.211 "
   id="polygon21" />
<path
   style="fill:#006992;stroke-width:1.61501;fill-opacity:1"
   d="m 326.11466,235.81819 c 28.7665,21.41176 47.39398,55.66281 47.39398,94.28731 0,41.16975 -21.15012,77.37819 -53.20316,98.35551 -18.47406,12.12063 -40.58188,19.14914 -64.32248,19.14914 -23.71798,0 -45.82742,-7.02851 -64.27887,-19.12653 -32.05304,-20.97732 -53.22577,-57.20676 -53.22577,-98.37812 0,-38.6245 18.64848,-72.89655 47.41497,-94.30831 19.56258,-14.57866 43.82482,-23.19634 70.08967,-23.19634 26.26324,-0.002 50.54809,8.63706 70.13166,23.21734 z"
   id="path23" />
<path
   d="m 245.11734,253.18907 c 3.19583,-0.27581 5.736,-2.85364 5.736,-6.16387 v -11.79486 c 0,-2.72049 3.02035,-4.27088 5.13559,-2.63485 l 35.02534,27.22349 c 3.16821,2.46355 3.17745,7.36222 0.01,9.82586 l -35.03461,27.30903 c -2.106,1.64558 -5.13561,0.0953 -5.13561,-2.62532 v -10.88178 c 0,-3.79524 -3.30677,-6.74396 -6.9552,-6.18277 -25.61333,4.00459 -44.39146,29.43019 -38.5354,57.98534 1.17311,5.72617 3.41757,11.09098 6.49338,15.87557 3.36212,5.24106 2.02286,12.27996 -2.95574,15.91363 l -0.19356,0.13275 c -5.08942,3.71921 -12.34943,2.6729 -15.82246,-2.6729 -7.37082,-11.37635 -11.6936,-25.02614 -11.6936,-39.73168 0,-37.64861 28.12562,-68.52474 63.92695,-71.57801 z m 21.75236,153.83286 c -3.19587,0.27583 -5.73601,2.85364 -5.73601,6.16387 v 11.79487 c 0,2.72048 -3.02035,4.27087 -5.13559,2.63484 l -35.02535,-27.22339 c -3.1682,-2.46365 -3.17745,-7.36232 -0.01,-9.82594 l 35.03461,-27.30904 c 2.10598,-1.64559 5.1356,-0.0953 5.1356,2.62531 v 10.88178 c 0,3.79525 3.30676,6.74398 6.95519,6.18277 25.61334,-4.00459 44.39146,-29.43017 38.5354,-57.98534 -1.17311,-5.72617 -3.41757,-11.09096 -6.49338,-15.87555 -3.3621,-5.24108 -2.02286,-12.27996 2.95575,-15.91363 l 0.19355,-0.13275 c 5.08943,-3.71922 12.34943,-2.6729 15.82246,2.67288 7.37082,11.37635 11.6936,25.02616 11.6936,39.7317 0,37.64859 -28.12562,68.52472 -63.92693,71.57801 z"
   id="sync"
   style="fill:#8acdea;fill-rule:evenodd;stroke:none;stroke-width:9.35037;fill-opacity:1" /></svg>
